<mxfile host="app.diagrams.net" agent="Mozilla/5.0 (Windows NT 10.0; Win64; x64) AppleWebKit/537.36 (KHTML, like Gecko) Chrome/136.0.0.0 Safari/537.36" version="28.2.3">
  <diagram name="PÃ¡gina-1" id="qd63Z9eFGw6-kaEKJPLW">
    <mxGraphModel dx="1186" dy="703" grid="1" gridSize="10" guides="1" tooltips="1" connect="1" arrows="1" fold="1" page="1" pageScale="1" pageWidth="827" pageHeight="1169" math="0" shadow="0">
      <root>
        <mxCell id="0" />
        <mxCell id="1" parent="0" />
        <mxCell id="IB9A0KUwy7l9iCsXccvl-12" value="CARRO" style="whiteSpace=wrap;html=1;align=center;" parent="1" vertex="1">
          <mxGeometry x="210" y="270" width="100" height="40" as="geometry" />
        </mxCell>
        <mxCell id="IB9A0KUwy7l9iCsXccvl-15" value="Marca" style="ellipse;whiteSpace=wrap;html=1;align=center;" parent="1" vertex="1">
          <mxGeometry x="10" y="270" width="100" height="40" as="geometry" />
        </mxCell>
        <mxCell id="IB9A0KUwy7l9iCsXccvl-16" value="Modelo" style="ellipse;whiteSpace=wrap;html=1;align=center;" parent="1" vertex="1">
          <mxGeometry x="50" y="330" width="100" height="40" as="geometry" />
        </mxCell>
        <mxCell id="IB9A0KUwy7l9iCsXccvl-17" value="Versao" style="ellipse;whiteSpace=wrap;html=1;align=center;" parent="1" vertex="1">
          <mxGeometry x="150" y="380" width="100" height="40" as="geometry" />
        </mxCell>
        <mxCell id="IB9A0KUwy7l9iCsXccvl-19" value="Eletrico" style="ellipse;whiteSpace=wrap;html=1;align=center;dashed=1;" parent="1" vertex="1">
          <mxGeometry x="380" y="360" width="100" height="40" as="geometry" />
        </mxCell>
        <mxCell id="IB9A0KUwy7l9iCsXccvl-20" value="NumChassi" style="ellipse;whiteSpace=wrap;html=1;align=center;fontStyle=4;" parent="1" vertex="1">
          <mxGeometry x="40" y="200" width="100" height="40" as="geometry" />
        </mxCell>
        <mxCell id="IB9A0KUwy7l9iCsXccvl-39" value="" style="endArrow=none;html=1;rounded=0;entryX=0.25;entryY=1;entryDx=0;entryDy=0;exitX=0.5;exitY=0;exitDx=0;exitDy=0;" parent="1" source="IB9A0KUwy7l9iCsXccvl-17" target="IB9A0KUwy7l9iCsXccvl-12" edge="1">
          <mxGeometry width="50" height="50" relative="1" as="geometry">
            <mxPoint x="240" y="340" as="sourcePoint" />
            <mxPoint x="190" y="270" as="targetPoint" />
          </mxGeometry>
        </mxCell>
        <mxCell id="IB9A0KUwy7l9iCsXccvl-40" value="" style="endArrow=none;html=1;rounded=0;entryX=0;entryY=1;entryDx=0;entryDy=0;exitX=1;exitY=0;exitDx=0;exitDy=0;" parent="1" source="IB9A0KUwy7l9iCsXccvl-16" target="IB9A0KUwy7l9iCsXccvl-12" edge="1">
          <mxGeometry width="50" height="50" relative="1" as="geometry">
            <mxPoint x="120" y="380" as="sourcePoint" />
            <mxPoint x="170" y="320" as="targetPoint" />
          </mxGeometry>
        </mxCell>
        <mxCell id="IB9A0KUwy7l9iCsXccvl-41" value="" style="endArrow=none;html=1;rounded=0;entryX=0;entryY=0.5;entryDx=0;entryDy=0;exitX=1;exitY=0.5;exitDx=0;exitDy=0;" parent="1" source="IB9A0KUwy7l9iCsXccvl-15" target="IB9A0KUwy7l9iCsXccvl-12" edge="1">
          <mxGeometry width="50" height="50" relative="1" as="geometry">
            <mxPoint x="170" y="310" as="sourcePoint" />
            <mxPoint x="220" y="250" as="targetPoint" />
          </mxGeometry>
        </mxCell>
        <mxCell id="IB9A0KUwy7l9iCsXccvl-43" value="" style="endArrow=none;dashed=1;html=1;rounded=0;entryX=0.75;entryY=1;entryDx=0;entryDy=0;exitX=0;exitY=0;exitDx=0;exitDy=0;" parent="1" source="IB9A0KUwy7l9iCsXccvl-19" target="IB9A0KUwy7l9iCsXccvl-12" edge="1">
          <mxGeometry width="50" height="50" relative="1" as="geometry">
            <mxPoint x="395" y="356" as="sourcePoint" />
            <mxPoint x="440" y="340" as="targetPoint" />
          </mxGeometry>
        </mxCell>
        <mxCell id="IB9A0KUwy7l9iCsXccvl-44" value="" style="endArrow=none;html=1;rounded=0;entryX=0;entryY=0;entryDx=0;entryDy=0;exitX=1;exitY=1;exitDx=0;exitDy=0;" parent="1" source="IB9A0KUwy7l9iCsXccvl-20" target="IB9A0KUwy7l9iCsXccvl-12" edge="1">
          <mxGeometry width="50" height="50" relative="1" as="geometry">
            <mxPoint x="230" y="200" as="sourcePoint" />
            <mxPoint x="300" y="210" as="targetPoint" />
          </mxGeometry>
        </mxCell>
        <mxCell id="IB9A0KUwy7l9iCsXccvl-45" value="" style="endArrow=none;html=1;rounded=0;entryX=0.5;entryY=0;entryDx=0;entryDy=0;exitX=0.5;exitY=1;exitDx=0;exitDy=0;" parent="1" source="3u77RdxLZiwR-0xIHnJh-7" target="IB9A0KUwy7l9iCsXccvl-12" edge="1">
          <mxGeometry width="50" height="50" relative="1" as="geometry">
            <mxPoint x="300" y="180" as="sourcePoint" />
            <mxPoint x="360" y="200" as="targetPoint" />
          </mxGeometry>
        </mxCell>
        <mxCell id="IB9A0KUwy7l9iCsXccvl-46" value="" style="endArrow=none;html=1;rounded=0;entryX=0;entryY=1;entryDx=0;entryDy=0;exitX=0.75;exitY=0;exitDx=0;exitDy=0;" parent="1" source="IB9A0KUwy7l9iCsXccvl-12" target="3u77RdxLZiwR-0xIHnJh-8" edge="1">
          <mxGeometry width="50" height="50" relative="1" as="geometry">
            <mxPoint x="360" y="210" as="sourcePoint" />
            <mxPoint x="404.64466094067257" y="194.14213562373106" as="targetPoint" />
          </mxGeometry>
        </mxCell>
        <mxCell id="IB9A0KUwy7l9iCsXccvl-47" value="" style="endArrow=none;html=1;rounded=0;exitX=1;exitY=0.25;exitDx=0;exitDy=0;" parent="1" source="IB9A0KUwy7l9iCsXccvl-12" target="3u77RdxLZiwR-0xIHnJh-12" edge="1">
          <mxGeometry width="50" height="50" relative="1" as="geometry">
            <mxPoint x="360" y="260" as="sourcePoint" />
            <mxPoint x="410" y="270" as="targetPoint" />
          </mxGeometry>
        </mxCell>
        <mxCell id="IB9A0KUwy7l9iCsXccvl-48" value="" style="endArrow=none;html=1;rounded=0;entryX=0.5;entryY=1;entryDx=0;entryDy=0;" parent="1" source="3u77RdxLZiwR-0xIHnJh-8" target="3u77RdxLZiwR-0xIHnJh-9" edge="1">
          <mxGeometry width="50" height="50" relative="1" as="geometry">
            <mxPoint x="404.64466094067257" y="165.85786437626894" as="sourcePoint" />
            <mxPoint x="380" y="140" as="targetPoint" />
          </mxGeometry>
        </mxCell>
        <mxCell id="IB9A0KUwy7l9iCsXccvl-49" value="" style="endArrow=none;html=1;rounded=0;entryX=0;entryY=1;entryDx=0;entryDy=0;" parent="1" source="3u77RdxLZiwR-0xIHnJh-8" target="3u77RdxLZiwR-0xIHnJh-10" edge="1">
          <mxGeometry width="50" height="50" relative="1" as="geometry">
            <mxPoint x="440" y="160" as="sourcePoint" />
            <mxPoint x="474" y="120" as="targetPoint" />
          </mxGeometry>
        </mxCell>
        <mxCell id="IB9A0KUwy7l9iCsXccvl-50" value="" style="endArrow=none;html=1;rounded=0;entryX=0;entryY=1;entryDx=0;entryDy=0;" parent="1" source="3u77RdxLZiwR-0xIHnJh-8" target="3u77RdxLZiwR-0xIHnJh-11" edge="1">
          <mxGeometry width="50" height="50" relative="1" as="geometry">
            <mxPoint x="475" y="166" as="sourcePoint" />
            <mxPoint x="531.7157287525381" y="145.60660171779818" as="targetPoint" />
          </mxGeometry>
        </mxCell>
        <mxCell id="IB9A0KUwy7l9iCsXccvl-51" value="" style="endArrow=none;html=1;rounded=0;entryX=1;entryY=0.75;entryDx=0;entryDy=0;exitX=0;exitY=0;exitDx=0;exitDy=0;" parent="1" source="3u77RdxLZiwR-0xIHnJh-18" target="IB9A0KUwy7l9iCsXccvl-12" edge="1">
          <mxGeometry width="50" height="50" relative="1" as="geometry">
            <mxPoint x="530" y="350" as="sourcePoint" />
            <mxPoint x="499.35533905932743" y="309.14213562373106" as="targetPoint" />
          </mxGeometry>
        </mxCell>
        <mxCell id="IB9A0KUwy7l9iCsXccvl-54" value="" style="endArrow=none;html=1;rounded=0;entryX=1;entryY=0;entryDx=0;entryDy=0;exitX=0;exitY=0.5;exitDx=0;exitDy=0;" parent="1" source="3u77RdxLZiwR-0xIHnJh-14" target="3u77RdxLZiwR-0xIHnJh-12" edge="1">
          <mxGeometry width="50" height="50" relative="1" as="geometry">
            <mxPoint x="551.7157287525381" y="255.60660171779818" as="sourcePoint" />
            <mxPoint x="499.35533905932743" y="280.85786437626894" as="targetPoint" />
          </mxGeometry>
        </mxCell>
        <mxCell id="IB9A0KUwy7l9iCsXccvl-55" value="" style="endArrow=none;html=1;rounded=0;entryX=1;entryY=1;entryDx=0;entryDy=0;exitX=0;exitY=0.5;exitDx=0;exitDy=0;" parent="1" source="3u77RdxLZiwR-0xIHnJh-15" target="3u77RdxLZiwR-0xIHnJh-12" edge="1">
          <mxGeometry width="50" height="50" relative="1" as="geometry">
            <mxPoint x="570" y="280" as="sourcePoint" />
            <mxPoint x="514" y="295" as="targetPoint" />
          </mxGeometry>
        </mxCell>
        <mxCell id="3u77RdxLZiwR-0xIHnJh-2" value="Combustivel" style="ellipse;whiteSpace=wrap;html=1;align=center;" vertex="1" parent="1">
          <mxGeometry x="270" y="380" width="100" height="40" as="geometry" />
        </mxCell>
        <mxCell id="3u77RdxLZiwR-0xIHnJh-3" value="" style="endArrow=none;html=1;rounded=0;entryX=0.5;entryY=1;entryDx=0;entryDy=0;exitX=0;exitY=0;exitDx=0;exitDy=0;" edge="1" parent="1" source="3u77RdxLZiwR-0xIHnJh-2" target="IB9A0KUwy7l9iCsXccvl-12">
          <mxGeometry width="50" height="50" relative="1" as="geometry">
            <mxPoint x="360" y="480" as="sourcePoint" />
            <mxPoint x="410" y="410" as="targetPoint" />
          </mxGeometry>
        </mxCell>
        <mxCell id="3u77RdxLZiwR-0xIHnJh-4" value="Cor" style="ellipse;whiteSpace=wrap;html=1;align=center;" vertex="1" parent="1">
          <mxGeometry x="120" y="150" width="100" height="40" as="geometry" />
        </mxCell>
        <mxCell id="3u77RdxLZiwR-0xIHnJh-5" value="" style="endArrow=none;html=1;rounded=0;entryX=0.25;entryY=0;entryDx=0;entryDy=0;exitX=0.5;exitY=1;exitDx=0;exitDy=0;" edge="1" parent="1" source="3u77RdxLZiwR-0xIHnJh-4" target="IB9A0KUwy7l9iCsXccvl-12">
          <mxGeometry width="50" height="50" relative="1" as="geometry">
            <mxPoint x="220" y="190" as="sourcePoint" />
            <mxPoint x="320" y="190" as="targetPoint" />
          </mxGeometry>
        </mxCell>
        <mxCell id="3u77RdxLZiwR-0xIHnJh-7" value="Matricula?" style="ellipse;whiteSpace=wrap;html=1;align=center;" vertex="1" parent="1">
          <mxGeometry x="230" y="140" width="100" height="40" as="geometry" />
        </mxCell>
        <mxCell id="3u77RdxLZiwR-0xIHnJh-27" value="" style="edgeStyle=orthogonalEdgeStyle;rounded=0;orthogonalLoop=1;jettySize=auto;html=1;" edge="1" parent="1" source="3u77RdxLZiwR-0xIHnJh-8" target="3u77RdxLZiwR-0xIHnJh-7">
          <mxGeometry relative="1" as="geometry" />
        </mxCell>
        <mxCell id="3u77RdxLZiwR-0xIHnJh-8" value="Motor" style="ellipse;whiteSpace=wrap;html=1;align=center;" vertex="1" parent="1">
          <mxGeometry x="340" y="160" width="100" height="40" as="geometry" />
        </mxCell>
        <mxCell id="3u77RdxLZiwR-0xIHnJh-9" value="Cv" style="ellipse;whiteSpace=wrap;html=1;align=center;" vertex="1" parent="1">
          <mxGeometry x="330" y="80" width="100" height="40" as="geometry" />
        </mxCell>
        <mxCell id="3u77RdxLZiwR-0xIHnJh-10" value="Cilindrada" style="ellipse;whiteSpace=wrap;html=1;align=center;" vertex="1" parent="1">
          <mxGeometry x="430" y="90" width="100" height="40" as="geometry" />
        </mxCell>
        <mxCell id="3u77RdxLZiwR-0xIHnJh-11" value="Binario" style="ellipse;whiteSpace=wrap;html=1;align=center;" vertex="1" parent="1">
          <mxGeometry x="500" y="130" width="100" height="40" as="geometry" />
        </mxCell>
        <mxCell id="3u77RdxLZiwR-0xIHnJh-12" value="Dono" style="ellipse;shape=doubleEllipse;margin=3;whiteSpace=wrap;html=1;align=center;" vertex="1" parent="1">
          <mxGeometry x="390" y="250" width="100" height="40" as="geometry" />
        </mxCell>
        <mxCell id="3u77RdxLZiwR-0xIHnJh-13" value="Turbo?" style="ellipse;whiteSpace=wrap;html=1;align=center;" vertex="1" parent="1">
          <mxGeometry x="500" y="180" width="100" height="40" as="geometry" />
        </mxCell>
        <mxCell id="3u77RdxLZiwR-0xIHnJh-14" value="Nome" style="ellipse;whiteSpace=wrap;html=1;align=center;" vertex="1" parent="1">
          <mxGeometry x="560" y="230" width="100" height="40" as="geometry" />
        </mxCell>
        <mxCell id="3u77RdxLZiwR-0xIHnJh-15" value="Nif" style="ellipse;whiteSpace=wrap;html=1;align=center;" vertex="1" parent="1">
          <mxGeometry x="570" y="280" width="100" height="40" as="geometry" />
        </mxCell>
        <mxCell id="3u77RdxLZiwR-0xIHnJh-16" value="" style="endArrow=none;html=1;rounded=0;entryX=0;entryY=0.5;entryDx=0;entryDy=0;exitX=1;exitY=1;exitDx=0;exitDy=0;" edge="1" parent="1" source="3u77RdxLZiwR-0xIHnJh-8" target="3u77RdxLZiwR-0xIHnJh-13">
          <mxGeometry width="50" height="50" relative="1" as="geometry">
            <mxPoint x="450" y="202" as="sourcePoint" />
            <mxPoint x="520" y="200" as="targetPoint" />
          </mxGeometry>
        </mxCell>
        <mxCell id="3u77RdxLZiwR-0xIHnJh-18" value="Custom" style="ellipse;shape=doubleEllipse;margin=3;whiteSpace=wrap;html=1;align=center;" vertex="1" parent="1">
          <mxGeometry x="520" y="370" width="100" height="40" as="geometry" />
        </mxCell>
        <mxCell id="3u77RdxLZiwR-0xIHnJh-19" value="Data" style="ellipse;whiteSpace=wrap;html=1;align=center;" vertex="1" parent="1">
          <mxGeometry x="650" y="330" width="100" height="40" as="geometry" />
        </mxCell>
        <mxCell id="3u77RdxLZiwR-0xIHnJh-20" value="Tipo" style="ellipse;whiteSpace=wrap;html=1;align=center;" vertex="1" parent="1">
          <mxGeometry x="680" y="380" width="100" height="40" as="geometry" />
        </mxCell>
        <mxCell id="3u77RdxLZiwR-0xIHnJh-21" value="Obs" style="ellipse;whiteSpace=wrap;html=1;align=center;" vertex="1" parent="1">
          <mxGeometry x="650" y="430" width="100" height="40" as="geometry" />
        </mxCell>
        <mxCell id="3u77RdxLZiwR-0xIHnJh-22" value="Preco?" style="ellipse;whiteSpace=wrap;html=1;align=center;" vertex="1" parent="1">
          <mxGeometry x="540" y="440" width="100" height="40" as="geometry" />
        </mxCell>
        <mxCell id="3u77RdxLZiwR-0xIHnJh-23" value="" style="endArrow=none;html=1;rounded=0;entryX=0.5;entryY=1;entryDx=0;entryDy=0;exitX=0.5;exitY=0;exitDx=0;exitDy=0;" edge="1" parent="1" source="3u77RdxLZiwR-0xIHnJh-22" target="3u77RdxLZiwR-0xIHnJh-18">
          <mxGeometry width="50" height="50" relative="1" as="geometry">
            <mxPoint x="860" y="500" as="sourcePoint" />
            <mxPoint x="630" y="430" as="targetPoint" />
          </mxGeometry>
        </mxCell>
        <mxCell id="3u77RdxLZiwR-0xIHnJh-24" value="" style="endArrow=none;html=1;rounded=0;entryX=1;entryY=0.5;entryDx=0;entryDy=0;exitX=0;exitY=0;exitDx=0;exitDy=0;" edge="1" parent="1" source="3u77RdxLZiwR-0xIHnJh-20" target="3u77RdxLZiwR-0xIHnJh-18">
          <mxGeometry width="50" height="50" relative="1" as="geometry">
            <mxPoint x="930" y="480" as="sourcePoint" />
            <mxPoint x="700" y="410" as="targetPoint" />
          </mxGeometry>
        </mxCell>
        <mxCell id="3u77RdxLZiwR-0xIHnJh-25" value="" style="endArrow=none;html=1;rounded=0;entryX=1;entryY=1;entryDx=0;entryDy=0;exitX=0;exitY=0;exitDx=0;exitDy=0;" edge="1" parent="1" source="3u77RdxLZiwR-0xIHnJh-21" target="3u77RdxLZiwR-0xIHnJh-18">
          <mxGeometry width="50" height="50" relative="1" as="geometry">
            <mxPoint x="670" y="510" as="sourcePoint" />
            <mxPoint x="440" y="440" as="targetPoint" />
          </mxGeometry>
        </mxCell>
        <mxCell id="3u77RdxLZiwR-0xIHnJh-26" value="" style="endArrow=none;html=1;rounded=0;entryX=1;entryY=0;entryDx=0;entryDy=0;" edge="1" parent="1" source="3u77RdxLZiwR-0xIHnJh-19" target="3u77RdxLZiwR-0xIHnJh-18">
          <mxGeometry width="50" height="50" relative="1" as="geometry">
            <mxPoint x="890" y="400" as="sourcePoint" />
            <mxPoint x="660" y="330" as="targetPoint" />
          </mxGeometry>
        </mxCell>
      </root>
    </mxGraphModel>
  </diagram>
</mxfile>
